{"title":"My Week With Marilyn[2011]BRrip[Ac3-5.1]-=[CaLvIn]=-","uid":7322006,"size":748615055,"categoryP":"video","categoryS":"movies","magnet":"?xt=urn:btih:019911d00fc0c07ee562106d24c71c1b04fca948&amp;dn=My+Week+With+Marilyn%5B2011%5DBRrip%5BAc3-5.1%5D-%3D%5BCaLvIn%5D%3D-&amp;tr=udp%3A%2F%2Ftracker.openbittorrent.com%3A80&amp;tr=udp%3A%2F%2Fopen.demonii.com%3A1337&amp;tr=udp%3A%2F%2Ftracker.coppersurfer.tk%3A6969&amp;tr=udp%3A%2F%2Fexodus.desync.com%3A6969","seeders":1,"leechers":0,"uploader":"rhythmtheguru","files":15,"time":1338648761,"description":"General\nComplete name                : My Week With Marilyn[2011]BRrip[Ac3-5.1]-=[CaLvIn]=-\nImdb Link                        : http://www.imdb.com/title/tt1655420\nFormat                           : AVI\nFormat/Info                      : Audio Video Interleave\nFile size                        : 700 MiB\nDuration                         : 1h 38mn\nOverall bit rate                 : 990 Kbps\nWriting application              : VirtualDubMod 1.5.10.3 | www.virtualdub-fr.org || (build 2550/release)\nWriting library                  : VirtualDubMod build 2550/release\n\nVideo\nID                               : 0\nFormat                           : MPEG-4 Visual\nFormat profile                   : Advanced Simple@L5\nFormat settings, BVOP            : 2\nFormat settings, QPel            : No\nFormat settings, GMC             : No warppoints\nFormat settings, Matrix          : Default (H.263)\nCodec ID                         : XVID\nCodec ID/Hint                    : XviD\nDuration                         : 1h 38mn\nBit rate                         : 788 Kbps\nWidth                            : 720 pixels\nHeight                           : 304 pixels\nDisplay aspect ratio             : 16:9\nFrame rate                       : 23.976 fps\nColor space                      : YUV\nChroma subsampling               : 4:2:0\nBit depth                        : 8 bits\nScan type                        : Progressive\nCompression mode                 : Lossy\nBits/(Pixel*Frame)               : 0.150\nStream size                      : 558 MiB (80%)\nWriting library                  : XviD 1.2.1 (UTC 2008-12-04)\n\nAudio\nID                               : 1\nFormat                           : AC-3\nFormat/Info                      : Audio Coding 3\nMode extension                   : CM (complete main)\nCodec ID                         : 2000\nDuration                         : 1h 38mn\nBit rate mode                    : Constant\nBit rate                         : 192 Kbps\nChannel(s)                       : 6 channels\nChannel positions                : Front: L C R, Side: L R, LFE\nSampling rate                    : 48.0 KHz\nBit depth                        : 16 bits\nCompression mode                 : Lossy\nStream size                      : 136 MiB (19%)\nAlignment                        : Split accross interleaves\nInterleave, duration             : 42 ms (1.00 video frame)\nInterleave, preload duration     : 500 ms\n\nScreens\n &lt;a href=&quot;\nhttp://img849.imageshack.us/img849/8946/38449592.png&quot; rel=&quot;nofollow&quot; target=&quot;_NEW&quot;&gt;\nhttp://img849.imageshack.us/img849/8946/38449592.png&lt;/a&gt; &lt;a href=&quot;\nhttp://img37.imageshack.us/img37/6909/18615691.png&quot; rel=&quot;nofollow&quot; target=&quot;_NEW&quot;&gt;\nhttp://img37.imageshack.us/img37/6909/18615691.png&lt;/a&gt; &lt;a href=&quot;\nhttp://img846.imageshack.us/img846/2774/42468856.png&quot; rel=&quot;nofollow&quot; target=&quot;_NEW&quot;&gt;\nhttp://img846.imageshack.us/img846/2774/42468856.png&lt;/a&gt; &lt;a href=&quot;\nhttp://img266.imageshack.us/img266/3427/61613131.png&quot; rel=&quot;nofollow&quot; target=&quot;_NEW&quot;&gt;\nhttp://img266.imageshack.us/img266/3427/61613131.png&lt;/a&gt; &lt;a href=&quot;\nhttp://img10.imageshack.us/img10/9067/54658237.png&quot; rel=&quot;nofollow&quot; target=&quot;_NEW&quot;&gt;\nhttp://img10.imageshack.us/img10/9067/54658237.png&lt;/a&gt; &lt;a href=&quot;\nhttp://img703.imageshack.us/img703/9063/34533184.png&quot; rel=&quot;nofollow&quot; target=&quot;_NEW&quot;&gt;\nhttp://img703.imageshack.us/img703/9063/34533184.png&lt;/a&gt; &lt;a href=&quot;\nhttp://img20.imageshack.us/img20/3728/55977205.png&quot; rel=&quot;nofollow&quot; target=&quot;_NEW&quot;&gt;\nhttp://img20.imageshack.us/img20/3728/55977205.png&lt;/a&gt; &lt;a href=&quot;\nhttp://img33.imageshack.us/img33/966/97475343.png&quot; rel=&quot;nofollow&quot; target=&quot;_NEW&quot;&gt;\nhttp://img33.imageshack.us/img33/966/97475343.png&lt;/a&gt; &lt;a href=&quot;\nhttp://img98.imageshack.us/img98/7590/62531669.png&quot; rel=&quot;nofollow&quot; target=&quot;_NEW&quot;&gt;\nhttp://img98.imageshack.us/img98/7590/62531669.png&lt;/a&gt; &lt;a href=&quot;\nhttp://img51.imageshack.us/img51/7343/74151601.png&quot; rel=&quot;nofollow&quot; target=&quot;_NEW&quot;&gt;\nhttp://img51.imageshack.us/img51/7343/74151601.png&lt;/a&gt;\n\n","torrent":{"xt":"urn:btih:019911d00fc0c07ee562106d24c71c1b04fca948","amp;dn":"My+Week+With+Marilyn%5B2011%5DBRrip%5BAc3-5.1%5D-%3D%5BCaLvIn%5D%3D-","amp;tr":["udp%3A%2F%2Ftracker.openbittorrent.com%3A80","udp%3A%2F%2Fopen.demonii.com%3A1337","udp%3A%2F%2Ftracker.coppersurfer.tk%3A6969","udp%3A%2F%2Fexodus.desync.com%3A6969"],"infoHash":"019911d00fc0c07ee562106d24c71c1b04fca948","infoHashBuffer":{"type":"Buffer","data":[1,153,17,208,15,192,192,126,229,98,16,109,36,199,28,27,4,252,169,72]},"announce":[],"urlList":[]}}